<?xml version="1.0" encoding="UTF-8"?>
<svg width="24px" height="24px" viewBox="0 0 24 24" version="1.1" xmlns="http://www.w3.org/2000/svg" xmlns:xlink="http://www.w3.org/1999/xlink">
    <!-- Generator: Sketch 54.1 (76490) - https://sketchapp.com -->
    <title>ic_fieldtrippa</title>
    <desc>Created with Sketch.</desc>
    <defs>
        <path d="M9.91819231,19.2141109 L6.1904049,6.64214088 C6.1767235,6.59600033 6.16977529,6.54812621 6.16977529,6.5 C6.16977529,6.22385763 6.39363291,6 6.66977529,6 L11.5925254,6 C11.8297724,6 12.0343554,6.16672476 12.0822367,6.3990898 L12.2666667,7.29411765 L15.6312059,7.29411765 C15.8504724,7.29411765 16.0441564,7.4369767 16.1089072,7.64646451 L17.7998163,13.1170527 C17.8145983,13.1648768 17.822115,13.2146495 17.822115,13.2647059 C17.822115,13.5408483 17.5982574,13.7647059 17.322115,13.7647059 L13.7408079,13.7647059 C13.5035609,13.7647059 13.2989779,13.5979811 13.2510966,13.3656161 L13.0666667,12.4705882 L10.0196772,12.4705882 L12.2658236,20.4226577 L19,15.93 L19,3 L5,3 L5,15.94 L9.91819231,19.2141109 Z M19,1 C20.1,1 21,1.9 21,3 L20.99,15.93 C20.99,16.62 20.64,17.23 20.11,17.59 L12,23 L3.88,17.59 C3.35,17.23 3,16.62 3,15.93 L3.01,3 C3.01,1.9 3.9,1 5,1 L19,1 Z" id="path-1"></path>
    </defs>
    <g id="ic_fieldtrippa" stroke="none" stroke-width="1" fill="none" fill-rule="evenodd">
        <mask id="mask-2" fill="white">
            <use xlink:href="#path-1"></use>
        </mask>
        <use id="ic_beenhere_24px" fill="#000000" fill-rule="nonzero" xlink:href="#path-1"></use>
    </g>
</svg>